<mxfile host="app.diagrams.net" agent="Mozilla/5.0 (X11; Ubuntu; Linux x86_64; rv:133.0) Gecko/20100101 Firefox/133.0" version="26.0.2">
  <diagram name="第 1 页" id="pwbyEX5tjVptzckvvFoN">
    <mxGraphModel dx="925" dy="530" grid="1" gridSize="10" guides="1" tooltips="1" connect="1" arrows="1" fold="1" page="1" pageScale="1" pageWidth="827" pageHeight="1169" math="0" shadow="0">
      <root>
        <mxCell id="0" />
        <mxCell id="1" parent="0" />
        <mxCell id="KOmMJ9XjBgBK_vWrJfue-1" value="" style="rounded=0;whiteSpace=wrap;html=1;fillColor=#dae8fc;strokeColor=#6c8ebf;" vertex="1" parent="1">
          <mxGeometry x="180" y="170" width="780" height="90" as="geometry" />
        </mxCell>
        <mxCell id="KOmMJ9XjBgBK_vWrJfue-2" value="" style="rounded=0;whiteSpace=wrap;html=1;fillColor=#d5e8d4;strokeColor=#82b366;" vertex="1" parent="1">
          <mxGeometry x="180" y="260" width="780" height="90" as="geometry" />
        </mxCell>
        <mxCell id="KOmMJ9XjBgBK_vWrJfue-3" value="" style="rounded=0;whiteSpace=wrap;html=1;fillColor=#ffe6cc;strokeColor=#d79b00;" vertex="1" parent="1">
          <mxGeometry x="180" y="350" width="780" height="90" as="geometry" />
        </mxCell>
        <mxCell id="KOmMJ9XjBgBK_vWrJfue-5" value="使用强化学习进行多无人机控制数据流" style="rounded=0;whiteSpace=wrap;html=1;rotation=-90;fillColor=#f5f5f5;fontColor=#333333;strokeColor=#666666;" vertex="1" parent="1">
          <mxGeometry x="28.75" y="288.75" width="270" height="32.5" as="geometry" />
        </mxCell>
        <mxCell id="KOmMJ9XjBgBK_vWrJfue-7" value="强化学习智能体" style="text;html=1;align=center;verticalAlign=middle;resizable=0;points=[];autosize=1;strokeColor=none;fillColor=none;rotation=-90;fontSize=10;" vertex="1" parent="1">
          <mxGeometry x="146" y="200" width="90" height="30" as="geometry" />
        </mxCell>
        <mxCell id="KOmMJ9XjBgBK_vWrJfue-8" value="仿真环境" style="text;html=1;align=center;verticalAlign=middle;resizable=0;points=[];autosize=1;strokeColor=none;fillColor=none;rotation=-90;fontSize=10;" vertex="1" parent="1">
          <mxGeometry x="161" y="290" width="60" height="30" as="geometry" />
        </mxCell>
        <mxCell id="KOmMJ9XjBgBK_vWrJfue-9" value="奖励函数" style="text;html=1;align=center;verticalAlign=middle;resizable=0;points=[];autosize=1;strokeColor=none;fillColor=none;rotation=-90;fontSize=10;" vertex="1" parent="1">
          <mxGeometry x="161" y="380" width="60" height="30" as="geometry" />
        </mxCell>
        <mxCell id="KOmMJ9XjBgBK_vWrJfue-43" style="edgeStyle=orthogonalEdgeStyle;rounded=0;orthogonalLoop=1;jettySize=auto;html=1;exitX=1;exitY=0.5;exitDx=0;exitDy=0;entryX=0;entryY=0.5;entryDx=0;entryDy=0;strokeWidth=0.6;endArrow=classicThin;endFill=1;" edge="1" parent="1" source="KOmMJ9XjBgBK_vWrJfue-10" target="KOmMJ9XjBgBK_vWrJfue-11">
          <mxGeometry relative="1" as="geometry" />
        </mxCell>
        <mxCell id="KOmMJ9XjBgBK_vWrJfue-10" value="" style="ellipse;whiteSpace=wrap;html=1;aspect=fixed;fillColor=#60a917;strokeColor=#2D7600;fontColor=#ffffff;" vertex="1" parent="1">
          <mxGeometry x="199" y="294.5" width="21" height="21" as="geometry" />
        </mxCell>
        <mxCell id="KOmMJ9XjBgBK_vWrJfue-44" style="edgeStyle=orthogonalEdgeStyle;rounded=0;orthogonalLoop=1;jettySize=auto;html=1;exitX=1;exitY=0.5;exitDx=0;exitDy=0;entryX=0;entryY=0.5;entryDx=0;entryDy=0;strokeWidth=0.6;endArrow=classicThin;endFill=1;jumpStyle=none;" edge="1" parent="1" source="KOmMJ9XjBgBK_vWrJfue-11" target="KOmMJ9XjBgBK_vWrJfue-12">
          <mxGeometry relative="1" as="geometry">
            <mxPoint x="294.0000000000001" y="305" as="sourcePoint" />
            <mxPoint x="328" y="214.99999999999994" as="targetPoint" />
            <Array as="points">
              <mxPoint x="298" y="305" />
              <mxPoint x="298" y="215" />
            </Array>
          </mxGeometry>
        </mxCell>
        <mxCell id="KOmMJ9XjBgBK_vWrJfue-11" value="获取状态" style="rounded=1;whiteSpace=wrap;html=1;" vertex="1" parent="1">
          <mxGeometry x="234" y="291.25" width="56" height="27.5" as="geometry" />
        </mxCell>
        <mxCell id="KOmMJ9XjBgBK_vWrJfue-45" style="edgeStyle=orthogonalEdgeStyle;rounded=0;orthogonalLoop=1;jettySize=auto;html=1;exitX=1;exitY=0.5;exitDx=0;exitDy=0;entryX=0;entryY=0.5;entryDx=0;entryDy=0;strokeWidth=0.6;endArrow=classicThin;endFill=1;" edge="1" parent="1" source="KOmMJ9XjBgBK_vWrJfue-12" target="KOmMJ9XjBgBK_vWrJfue-13">
          <mxGeometry relative="1" as="geometry" />
        </mxCell>
        <mxCell id="KOmMJ9XjBgBK_vWrJfue-12" value="处理观测" style="rounded=1;whiteSpace=wrap;html=1;" vertex="1" parent="1">
          <mxGeometry x="312" y="201.25" width="56" height="27.5" as="geometry" />
        </mxCell>
        <mxCell id="KOmMJ9XjBgBK_vWrJfue-46" style="edgeStyle=orthogonalEdgeStyle;rounded=0;orthogonalLoop=1;jettySize=auto;html=1;exitX=1;exitY=0.5;exitDx=0;exitDy=0;entryX=0;entryY=0.5;entryDx=0;entryDy=0;strokeWidth=0.6;endArrow=classicThin;endFill=1;" edge="1" parent="1" source="KOmMJ9XjBgBK_vWrJfue-13" target="KOmMJ9XjBgBK_vWrJfue-14">
          <mxGeometry relative="1" as="geometry">
            <mxPoint x="445" y="215" as="sourcePoint" />
            <mxPoint x="468.99999999999545" y="304.5" as="targetPoint" />
            <Array as="points">
              <mxPoint x="449" y="215" />
              <mxPoint x="449" y="304" />
            </Array>
          </mxGeometry>
        </mxCell>
        <mxCell id="KOmMJ9XjBgBK_vWrJfue-13" value="选择动作" style="rounded=1;whiteSpace=wrap;html=1;" vertex="1" parent="1">
          <mxGeometry x="384" y="201.25" width="56" height="27.5" as="geometry" />
        </mxCell>
        <mxCell id="KOmMJ9XjBgBK_vWrJfue-17" value="" style="group" vertex="1" connectable="0" parent="1">
          <mxGeometry x="464" y="294" width="21" height="21" as="geometry" />
        </mxCell>
        <mxCell id="KOmMJ9XjBgBK_vWrJfue-14" value="" style="ellipse;whiteSpace=wrap;html=1;aspect=fixed;fillColor=#fff2cc;strokeColor=#d6b656;" vertex="1" parent="KOmMJ9XjBgBK_vWrJfue-17">
          <mxGeometry width="21" height="21" as="geometry" />
        </mxCell>
        <mxCell id="KOmMJ9XjBgBK_vWrJfue-16" value="" style="shape=flexArrow;endArrow=classic;html=1;rounded=0;endWidth=6.301337189368078;endSize=2.0324324324324325;width=4.864864864864865;strokeWidth=0.5;fillColor=#fff2cc;strokeColor=#d6b656;" edge="1" parent="KOmMJ9XjBgBK_vWrJfue-17">
          <mxGeometry width="50" height="50" relative="1" as="geometry">
            <mxPoint x="4" y="10.310000000000002" as="sourcePoint" />
            <mxPoint x="17" y="10.310000000000002" as="targetPoint" />
          </mxGeometry>
        </mxCell>
        <mxCell id="KOmMJ9XjBgBK_vWrJfue-19" value="执行动作" style="rounded=1;whiteSpace=wrap;html=1;" vertex="1" parent="1">
          <mxGeometry x="501" y="291.25" width="56" height="27.5" as="geometry" />
        </mxCell>
        <mxCell id="KOmMJ9XjBgBK_vWrJfue-52" style="edgeStyle=orthogonalEdgeStyle;rounded=0;orthogonalLoop=1;jettySize=auto;html=1;exitX=1;exitY=0.5;exitDx=0;exitDy=0;entryX=0.5;entryY=1;entryDx=0;entryDy=0;endArrow=classicThin;endFill=1;strokeWidth=0.6;" edge="1" parent="1" source="KOmMJ9XjBgBK_vWrJfue-20" target="KOmMJ9XjBgBK_vWrJfue-39">
          <mxGeometry relative="1" as="geometry" />
        </mxCell>
        <mxCell id="KOmMJ9XjBgBK_vWrJfue-20" value="计算奖励" style="rounded=1;whiteSpace=wrap;html=1;" vertex="1" parent="1">
          <mxGeometry x="613" y="381.25" width="56" height="27.5" as="geometry" />
        </mxCell>
        <mxCell id="KOmMJ9XjBgBK_vWrJfue-51" style="edgeStyle=orthogonalEdgeStyle;rounded=0;orthogonalLoop=1;jettySize=auto;html=1;exitX=1;exitY=0.5;exitDx=0;exitDy=0;entryX=0;entryY=0.5;entryDx=0;entryDy=0;endArrow=classicThin;endFill=1;strokeWidth=0.6;" edge="1" parent="1" source="KOmMJ9XjBgBK_vWrJfue-21" target="KOmMJ9XjBgBK_vWrJfue-22">
          <mxGeometry relative="1" as="geometry">
            <mxPoint x="669" y="304.99999999999994" as="sourcePoint" />
            <mxPoint x="699" y="215" as="targetPoint" />
            <Array as="points">
              <mxPoint x="689" y="305" />
              <mxPoint x="689" y="215" />
            </Array>
          </mxGeometry>
        </mxCell>
        <mxCell id="KOmMJ9XjBgBK_vWrJfue-21" value="获取新状态" style="rounded=1;whiteSpace=wrap;html=1;" vertex="1" parent="1">
          <mxGeometry x="606" y="291.25" width="70" height="27.5" as="geometry" />
        </mxCell>
        <mxCell id="KOmMJ9XjBgBK_vWrJfue-53" style="edgeStyle=orthogonalEdgeStyle;rounded=0;orthogonalLoop=1;jettySize=auto;html=1;exitX=1;exitY=0.5;exitDx=0;exitDy=0;entryX=0;entryY=0.5;entryDx=0;entryDy=0;endArrow=classicThin;endFill=1;strokeWidth=0.6;" edge="1" parent="1" source="KOmMJ9XjBgBK_vWrJfue-22" target="KOmMJ9XjBgBK_vWrJfue-39">
          <mxGeometry relative="1" as="geometry" />
        </mxCell>
        <mxCell id="KOmMJ9XjBgBK_vWrJfue-22" value="处理观测" style="rounded=1;whiteSpace=wrap;html=1;" vertex="1" parent="1">
          <mxGeometry x="703" y="201.25" width="56" height="27.5" as="geometry" />
        </mxCell>
        <mxCell id="KOmMJ9XjBgBK_vWrJfue-55" style="edgeStyle=orthogonalEdgeStyle;rounded=0;orthogonalLoop=1;jettySize=auto;html=1;exitX=1;exitY=0.5;exitDx=0;exitDy=0;entryX=0;entryY=0.5;entryDx=0;entryDy=0;endArrow=classicThin;endFill=1;strokeWidth=0.6;" edge="1" parent="1" source="KOmMJ9XjBgBK_vWrJfue-23" target="KOmMJ9XjBgBK_vWrJfue-35">
          <mxGeometry relative="1" as="geometry" />
        </mxCell>
        <mxCell id="KOmMJ9XjBgBK_vWrJfue-23" value="选择动作" style="rounded=1;whiteSpace=wrap;html=1;" vertex="1" parent="1">
          <mxGeometry x="811" y="201.25" width="56" height="27.5" as="geometry" />
        </mxCell>
        <mxCell id="KOmMJ9XjBgBK_vWrJfue-33" value="" style="group" vertex="1" connectable="0" parent="1">
          <mxGeometry x="572" y="295" width="20" height="20" as="geometry" />
        </mxCell>
        <mxCell id="KOmMJ9XjBgBK_vWrJfue-24" value="" style="rhombus;whiteSpace=wrap;html=1;fillColor=#fff2cc;strokeColor=#d6b656;container=0;" vertex="1" parent="KOmMJ9XjBgBK_vWrJfue-33">
          <mxGeometry width="20" height="20" as="geometry" />
        </mxCell>
        <mxCell id="KOmMJ9XjBgBK_vWrJfue-30" value="" style="endArrow=none;html=1;rounded=0;fillColor=#fff2cc;strokeColor=#d6b656;" edge="1" parent="KOmMJ9XjBgBK_vWrJfue-33">
          <mxGeometry width="50" height="50" relative="1" as="geometry">
            <mxPoint x="15" y="10" as="sourcePoint" />
            <mxPoint x="5" y="10" as="targetPoint" />
            <Array as="points">
              <mxPoint x="15" y="10" />
            </Array>
          </mxGeometry>
        </mxCell>
        <mxCell id="KOmMJ9XjBgBK_vWrJfue-31" value="" style="endArrow=none;html=1;rounded=0;fillColor=#fff2cc;strokeColor=#d6b656;" edge="1" parent="KOmMJ9XjBgBK_vWrJfue-33">
          <mxGeometry width="50" height="50" relative="1" as="geometry">
            <mxPoint x="10" y="15" as="sourcePoint" />
            <mxPoint x="10" y="5" as="targetPoint" />
            <Array as="points">
              <mxPoint x="10" y="15" />
            </Array>
          </mxGeometry>
        </mxCell>
        <mxCell id="KOmMJ9XjBgBK_vWrJfue-56" style="edgeStyle=orthogonalEdgeStyle;rounded=0;orthogonalLoop=1;jettySize=auto;html=1;exitX=1;exitY=0.5;exitDx=0;exitDy=0;entryX=0;entryY=0.5;entryDx=0;entryDy=0;endArrow=classicThin;endFill=1;strokeWidth=0.6;" edge="1" parent="1" source="KOmMJ9XjBgBK_vWrJfue-35" target="KOmMJ9XjBgBK_vWrJfue-42">
          <mxGeometry relative="1" as="geometry" />
        </mxCell>
        <mxCell id="KOmMJ9XjBgBK_vWrJfue-57" style="edgeStyle=orthogonalEdgeStyle;rounded=0;orthogonalLoop=1;jettySize=auto;html=1;exitX=0.5;exitY=0;exitDx=0;exitDy=0;entryX=0.5;entryY=0;entryDx=0;entryDy=0;endArrow=classicThin;endFill=1;strokeWidth=0.6;" edge="1" parent="1" source="KOmMJ9XjBgBK_vWrJfue-35" target="KOmMJ9XjBgBK_vWrJfue-14">
          <mxGeometry relative="1" as="geometry" />
        </mxCell>
        <mxCell id="KOmMJ9XjBgBK_vWrJfue-35" value="" style="rhombus;whiteSpace=wrap;html=1;fillColor=#fff2cc;strokeColor=#d6b656;container=0;" vertex="1" parent="1">
          <mxGeometry x="884" y="205" width="20" height="20" as="geometry" />
        </mxCell>
        <mxCell id="KOmMJ9XjBgBK_vWrJfue-38" value="" style="group" vertex="1" connectable="0" parent="1">
          <mxGeometry x="774" y="205" width="21" height="21" as="geometry" />
        </mxCell>
        <mxCell id="KOmMJ9XjBgBK_vWrJfue-39" value="" style="ellipse;whiteSpace=wrap;html=1;aspect=fixed;fillColor=#fff2cc;strokeColor=#d6b656;" vertex="1" parent="KOmMJ9XjBgBK_vWrJfue-38">
          <mxGeometry width="21" height="21" as="geometry" />
        </mxCell>
        <mxCell id="KOmMJ9XjBgBK_vWrJfue-40" value="" style="shape=flexArrow;endArrow=classic;html=1;rounded=0;endWidth=6.301337189368078;endSize=2.0324324324324325;width=4.864864864864865;strokeWidth=0.5;fillColor=#fff2cc;strokeColor=#d6b656;" edge="1" parent="KOmMJ9XjBgBK_vWrJfue-38">
          <mxGeometry width="50" height="50" relative="1" as="geometry">
            <mxPoint x="4" y="10.310000000000002" as="sourcePoint" />
            <mxPoint x="17" y="10.310000000000002" as="targetPoint" />
          </mxGeometry>
        </mxCell>
        <mxCell id="KOmMJ9XjBgBK_vWrJfue-42" value="" style="ellipse;whiteSpace=wrap;html=1;aspect=fixed;fillColor=#f8cecc;strokeColor=#b85450;" vertex="1" parent="1">
          <mxGeometry x="925" y="204.5" width="21" height="21" as="geometry" />
        </mxCell>
        <mxCell id="KOmMJ9XjBgBK_vWrJfue-47" style="edgeStyle=orthogonalEdgeStyle;rounded=0;orthogonalLoop=1;jettySize=auto;html=1;exitX=1;exitY=0.5;exitDx=0;exitDy=0;entryX=0;entryY=0.5;entryDx=0;entryDy=0;endArrow=classicThin;endFill=1;strokeWidth=0.6;" edge="1" parent="1" source="KOmMJ9XjBgBK_vWrJfue-14" target="KOmMJ9XjBgBK_vWrJfue-19">
          <mxGeometry relative="1" as="geometry" />
        </mxCell>
        <mxCell id="KOmMJ9XjBgBK_vWrJfue-48" style="edgeStyle=orthogonalEdgeStyle;rounded=0;orthogonalLoop=1;jettySize=auto;html=1;exitX=1;exitY=0.5;exitDx=0;exitDy=0;entryX=0;entryY=0.5;entryDx=0;entryDy=0;strokeWidth=0.6;endArrow=classicThin;endFill=1;" edge="1" parent="1" source="KOmMJ9XjBgBK_vWrJfue-19" target="KOmMJ9XjBgBK_vWrJfue-24">
          <mxGeometry relative="1" as="geometry" />
        </mxCell>
        <mxCell id="KOmMJ9XjBgBK_vWrJfue-49" style="edgeStyle=orthogonalEdgeStyle;rounded=0;orthogonalLoop=1;jettySize=auto;html=1;exitX=1;exitY=0.5;exitDx=0;exitDy=0;entryX=0;entryY=0.5;entryDx=0;entryDy=0;strokeWidth=0.6;endArrow=classicThin;endFill=1;" edge="1" parent="1" source="KOmMJ9XjBgBK_vWrJfue-24" target="KOmMJ9XjBgBK_vWrJfue-21">
          <mxGeometry relative="1" as="geometry" />
        </mxCell>
        <mxCell id="KOmMJ9XjBgBK_vWrJfue-50" style="edgeStyle=orthogonalEdgeStyle;rounded=0;orthogonalLoop=1;jettySize=auto;html=1;exitX=0.5;exitY=1;exitDx=0;exitDy=0;entryX=0;entryY=0.5;entryDx=0;entryDy=0;strokeWidth=0.6;endArrow=classicThin;endFill=1;" edge="1" parent="1" source="KOmMJ9XjBgBK_vWrJfue-24" target="KOmMJ9XjBgBK_vWrJfue-20">
          <mxGeometry relative="1" as="geometry" />
        </mxCell>
        <mxCell id="KOmMJ9XjBgBK_vWrJfue-54" style="edgeStyle=orthogonalEdgeStyle;rounded=0;orthogonalLoop=1;jettySize=auto;html=1;exitX=1;exitY=0.5;exitDx=0;exitDy=0;entryX=0;entryY=0.5;entryDx=0;entryDy=0;endArrow=classicThin;endFill=1;strokeWidth=0.6;" edge="1" parent="1" source="KOmMJ9XjBgBK_vWrJfue-39" target="KOmMJ9XjBgBK_vWrJfue-23">
          <mxGeometry relative="1" as="geometry" />
        </mxCell>
        <mxCell id="KOmMJ9XjBgBK_vWrJfue-58" value="检查目标" style="text;html=1;align=center;verticalAlign=middle;resizable=0;points=[];autosize=1;strokeColor=none;fillColor=none;fontSize=10;" vertex="1" parent="1">
          <mxGeometry x="864" y="220" width="60" height="30" as="geometry" />
        </mxCell>
        <mxCell id="KOmMJ9XjBgBK_vWrJfue-59" value="是" style="text;html=1;align=center;verticalAlign=middle;resizable=0;points=[];autosize=1;strokeColor=none;fillColor=none;fontSize=10;" vertex="1" parent="1">
          <mxGeometry x="894" y="195" width="30" height="30" as="geometry" />
        </mxCell>
        <mxCell id="KOmMJ9XjBgBK_vWrJfue-60" value="否" style="text;html=1;align=center;verticalAlign=middle;resizable=0;points=[];autosize=1;strokeColor=none;fillColor=none;fontSize=10;" vertex="1" parent="1">
          <mxGeometry x="884" y="174.5" width="30" height="30" as="geometry" />
        </mxCell>
      </root>
    </mxGraphModel>
  </diagram>
</mxfile>
